<?xml version="1.0" standalone="no"?>
<!DOCTYPE svg PUBLIC "-//W3C//DTD SVG 20010904//EN"
 "http://www.w3.org/TR/2001/REC-SVG-20010904/DTD/svg10.dtd">
<svg version="1.0" xmlns="http://www.w3.org/2000/svg"
 width="512.000000pt" height="512.000000pt" viewBox="0 0 512.000000 512.000000"
 preserveAspectRatio="xMidYMid meet">

<g transform="translate(0.000000,512.000000) scale(0.100000,-0.100000)"
fill="#000000" stroke="none">
<path d="M1033 3000 c-46 -11 -80 -35 -100 -73 -16 -28 -18 -60 -17 -267 1
-260 16 -384 63 -549 153 -527 548 -938 1067 -1110 103 -34 181 -52 332 -77
l32 -5 0 -309 0 -309 -392 -3 c-356 -3 -396 -5 -426 -21 -96 -53 -96 -201 0
-254 31 -17 90 -18 963 -21 1050 -3 983 -8 1031 73 30 52 31 96 2 147 -44 78
-45 78 -488 78 l-390 0 0 308 0 308 91 13 c635 90 1178 570 1349 1192 43 160
52 237 57 506 5 260 5 261 -18 303 -43 75 -62 80 -339 80 l-240 0 0 -150 0
-150 151 0 152 0 -6 -162 c-3 -90 -12 -199 -21 -243 -37 -179 -110 -352 -211
-505 -63 -95 -258 -291 -351 -352 -161 -107 -335 -180 -506 -213 -134 -26
-355 -31 -479 -10 -338 56 -637 234 -843 500 -197 254 -286 515 -286 841 l0
144 150 0 150 0 0 150 0 150 -222 -1 c-123 -1 -238 -4 -255 -9z"/>
</g>
</svg>
